:SAMPLES-PER-SECOND 30
:FULLY-SPECIFIED
:DEGREES
217
root  23.3182 37.9144 -13.2846 137.751 82.4482 146.887
RightUpLeg  -19.0581 -21.7374 -7.98015
RightLeg  11.6172 -5.21909 1.67996
RightFoot  2.15454 -1.7383 14.7326
RightToes  0.00048216 0.542163 -0.142577
Spine  34.0637 -3.21325 1.79926
Spine1  15.3152 -0.949774 -5.83849
HEad  28.1474 30.9508 -11.8403
LeftShoulder1  6.55881 -10.2875 -41.2214
LeftArm  -31.7527 21.7635 -13.2606
LeftForeArm  17.6028 -36.8419 -7.33145
LeftHand  -0.25398 0.0180481 5.50724
RightShoulder  5.26078 9.08879 35.8006
RightArm  -14.1669 -28.1994 36.6745
RightForeArm  -12.6402 8.38854 7.05306
RightHand  -0.652245 -0.286485 -14.8023
LeftUpLeg  -6.38261 13.1254 -5.89216
LeftLeg  35.0742 4.38124 3.67485
LeftFoot  -17.8555 0.323646 3.81508
LeftToes  1.06243e-005 4.65856e-005 -8.18503e-006
218
root  22.0469 38.564 -13.3369 142.866 83.9774 151.746
RightUpLeg  -19.1907 -22.0658 -6.32665
RightLeg  19.2459 -1.03776 -1.04526
RightFoot  1.02246 -1.4437 13.3378
RightToes  0.00048216 0.542163 -0.142577
Spine  33.3067 -3.35239 3.09356
Spine1  14.8777 -0.450891 -6.70054
HEad  29.3353 32.6226 -11.4012
LeftShoulder1  6.39465 -10.1333 -40.5954
LeftArm  -32.3204 22.0094 -16.963
LeftForeArm  18.4605 -37.6695 -7.51687
LeftHand  -0.25398 0.0180481 5.50724
RightShoulder  5.27973 9.23285 35.4837
RightArm  -12.7835 -24.8266 37.2137
RightForeArm  -13.2352 10.5865 7.37057
RightHand  -0.689879 -0.0575434 -15.0057
LeftUpLeg  -6.3949 14.452 -4.94739
LeftLeg  29.859 4.13455 2.93915
LeftFoot  -13.3885 0.166898 4.65396
LeftToes  1.06243e-005 4.65856e-005 -8.18503e-006
219
root  20.8374 39.1756 -13.3739 147.356 85.8707 155.585
RightUpLeg  -18.3128 -16.0952 -7.11669
RightLeg  27.5735 -4.44391 -2.72621
RightFoot  0.559964 -1.21484 11.6624
RightToes  0.00048216 0.542163 -0.142577
Spine  31.898 -3.05985 4.28128
Spine1  14.533 0.34063 -7.32241
HEad  30.5344 33.8144 -10.3287
LeftShoulder1  6.30447 -10.0556 -40.2214
LeftArm  -31.7015 22.6225 -20.5308
LeftForeArm  20.0125 -37.8042 -7.45943
LeftHand  -0.25398 0.0180481 5.50724
RightShoulder  5.26663 9.3642 34.9679
RightArm  -8.26201 -21.4822 37.5356
RightForeArm  -14.8323 14.7099 7.22826
RightHand  -0.755547 0.33528 -15.3448
LeftUpLeg  -6.18409 16.8326 -3.88314
LeftLeg  23.8545 2.91255 1.79467
LeftFoot  -9.1477 -0.028172 4.41403
LeftToes  1.06243e-005 4.65856e-005 -8.18503e-006
220
root  19.7131 39.5831 -13.3914 152.294 87.8934 159.909
RightUpLeg  -17.2761 -12.535 -7.15585
RightLeg  36.4326 -5.03115 -4.21244
RightFoot  0.338018 -1.08571 10.6088
RightToes  0.00048216 0.542163 -0.142577
Spine  30.1903 -2.60365 5.12055
Spine1  13.9593 1.21465 -8.18665
HEad  31.6324 34.9037 -8.79786
LeftShoulder1  6.30314 -10.0312 -40.2908
LeftArm  -30.5381 23.9331 -23.4369
LeftForeArm  22.2391 -37.4402 -7.21645
LeftHand  -0.25398 0.0180481 5.50724
RightShoulder  5.22203 9.41989 34.4535
RightArm  -2.73511 -18.4367 37.6605
RightForeArm  -16.8159 20.5513 6.24052
RightHand  -0.80066 0.543422 -15.7067
LeftUpLeg  -5.96565 18.9605 -2.54657
LeftLeg  18.7376 2.38632 0.243966
LeftFoot  -6.03639 -0.136999 3.74101
LeftToes  1.06243e-005 4.65856e-005 -8.18503e-006
221
root  18.6303 39.7843 -13.387 152.189 89.4784 159.498
RightUpLeg  -14.8131 -10.598 -7.25487
RightLeg  44.1024 -4.8581 -5.33368
RightFoot  -0.438795 -0.923303 9.61451
RightToes  0.00048216 0.542163 -0.142577
Spine  28.5472 -2.25954 5.60917
Spine1  13.2928 1.77564 -8.9465
HEad  32.4842 35.9993 -7.25496
LeftShoulder1  6.33714 -9.98092 -40.6913
LeftArm  -29.4151 25.6196 -25.7903
LeftForeArm  24.1043 -36.0687 -6.72321
LeftHand  -0.25398 0.0180481 5.50724
RightShoulder  5.12492 9.31564 34.0292
RightArm  -1.90623 -15.5882 37.4731
RightForeArm  -14.3264 27.1228 6.45038
RightHand  -0.787167 0.362708 -15.9058
LeftUpLeg  -5.80926 15.6131 -0.721042
LeftLeg  15.0658 7.23498 -1.80814
LeftFoot  -3.75651 -0.171096 2.92998
LeftToes  1.06243e-005 4.65856e-005 -8.18503e-006
222
root  17.5743 39.8588 -13.3716 -33.3089 89.6094 -26.4797
RightUpLeg  -11.2224 -9.75911 -7.96917
RightLeg  49.486 -5.00111 -6.58444
RightFoot  -1.59551 -0.735516 8.48348
RightToes  0.00048216 0.542163 -0.142577
Spine  26.2303 -1.8621 5.49704
Spine1  13.0968 2.03913 -9.01374
HEad  33.0651 36.8345 -5.99163
LeftShoulder1  6.37672 -9.89695 -41.2435
LeftArm  -28.0625 27.0339 -27.6829
LeftForeArm  24.2616 -32.9854 -5.91336
LeftHand  -0.25398 0.0180481 5.50724
RightShoulder  4.9799 9.04905 33.7263
RightArm  -3.97279 -12.9637 37.1543
RightForeArm  -9.67317 34.4453 8.25582
RightHand  -0.678287 -0.453485 -15.887
LeftUpLeg  -6.22116 11.4031 0.0689004
LeftLeg  11.6553 12.3578 -3.42858
LeftFoot  -1.35915 -0.20063 2.383
LeftToes  1.06243e-005 4.65856e-005 -8.18503e-006
223
root  16.55 39.7907 -13.3359 40.5877 88.7005 46.2114
RightUpLeg  -7.56457 -9.27253 -9.65845
RightLeg  52.4293 -4.54644 -6.67498
RightFoot  -2.48694 -0.61991 7.7849
RightToes  0.00048216 0.542163 -0.142577
Spine  22.4905 -1.0844 4.42999
Spine1  13.5222 2.42691 -8.60459
HEad  33.7131 37.1736 -4.85892
LeftShoulder1  6.44806 -9.85288 -41.8878
LeftArm  -25.7795 27.9059 -28.8729
LeftForeArm  22.5562 -28.2761 -4.88386
LeftHand  -0.25398 0.0180481 5.50724
RightShoulder  4.85456 8.75475 33.6571
RightArm  -5.98848 -10.846 36.7402
RightForeArm  -6.06945 42.4452 10.6402
RightHand  -0.537978 -1.5714 -16.1175
LeftUpLeg  -7.82627 8.12071 -0.735003
LeftLeg  8.56474 16.3895 -4.50885
LeftFoot  1.28905 -0.316752 2.77127
LeftToes  1.06243e-005 4.65856e-005 -8.18503e-006
224
root  15.5037 39.5663 -13.2539 52.8096 87.1526 56.9087
RightUpLeg  -3.78268 -8.692 -11.5823
RightLeg  52.6484 -2.67656 -4.16706
RightFoot  -2.38284 -0.637611 7.90402
RightToes  0.00048216 0.542163 -0.142577
Spine  18.2633 -0.0316588 2.94975
Spine1  14.0662 3.15318 -8.32106
HEad  34.7959 37.1435 -3.57442
LeftShoulder1  6.52283 -9.83798 -42.4586
LeftArm  -22.642 28.6008 -29.4104
LeftForeArm  20.3152 -23.1992 -3.89976
LeftHand  -0.25398 0.0180481 5.50724
RightShoulder  4.78767 8.55424 33.7594
RightArm  -7.91507 -9.29432 36.256
RightForeArm  -2.52864 50.2604 13.7475
RightHand  -0.477977 -2.18117 -16.8825
LeftUpLeg  -10.5964 6.6416 -2.17952
LeftLeg  6.96748 18.9514 -5.06462
LeftFoot  3.52059 -0.525759 3.86766
LeftToes  1.06243e-005 4.65856e-005 -8.18503e-006
225
root  14.3838 39.2726 -13.1179 51.765 85.932 54.9647
RightUpLeg  1.07894 -7.80257 -12.516
RightLeg  49.5563 0.0156113 -0.373308
RightFoot  -1.66005 -0.809812 9.39038
RightToes  0.00048216 0.542163 -0.142577
Spine  15.1989 0.929546 2.19366
Spine1  14.2534 4.07959 -8.48045
HEad  36.1583 37.1183 -2.20338
LeftShoulder1  6.50506 -9.75235 -42.6256
LeftArm  -19.9795 29.7589 -29.788
LeftForeArm  19.1165 -19.3068 -3.24931
LeftHand  -0.25398 0.0180481 5.50724
RightShoulder  4.74179 8.44069 33.7526
RightArm  -9.33805 -7.94812 35.9238
RightForeArm  1.73529 56.9994 17.445
RightHand  -0.501495 -2.19035 -17.7922
LeftUpLeg  -13.4091 7.09327 -3.03945
LeftLeg  6.87422 19.6589 -5.14757
LeftFoot  5.04706 -0.652581 4.3246
LeftToes  1.06243e-005 4.65856e-005 -8.18503e-006
226
root  13.1923 39.0012 -12.9574 43.5392 85.1071 46.6685
RightUpLeg  6.93968 -6.4335 -12.1192
RightLeg  43.2334 2.12604 1.85655
RightFoot  -2.7695 -0.909559 11.9634
RightToes  0.00048216 0.542163 -0.142577
Spine  13.5243 1.70549 2.59716
Spine1  14.172 5.12948 -9.1211
HEad  37.2777 37.3368 -1.07612
LeftShoulder1  6.36619 -9.55952 -42.3093
LeftArm  -18.93 31.638 -30.219
LeftForeArm  19.0425 -17.1455 -3.02839
LeftHand  -0.25398 0.0180481 5.50724
RightShoulder  4.69228 8.3699 33.5738
RightArm  -9.8372 -6.36919 35.6625
RightForeArm  6.6554 62.2782 21.5038
RightHand  -0.521322 -2.18199 -18.471
LeftUpLeg  -15.3225 7.81577 -2.89301
LeftLeg  6.70041 20.036 -5.1506
LeftFoot  6.43402 -0.576402 3.44396
LeftToes  1.06243e-005 4.65856e-005 -8.18503e-006
227
root  11.9172 38.7638 -12.8142 32.2035 83.9413 35.457
RightUpLeg  12.2064 -4.98296 -11.0271
RightLeg  35.1423 2.49695 1.66885
RightFoot  -7.8081 -0.472462 13.3836
RightToes  0.00048216 0.542163 -0.142577
Spine  12.3556 2.44363 3.81708
Spine1  14.0763 6.37848 -10.1941
HEad  37.8127 37.6437 -0.391086
LeftShoulder1  6.18809 -9.32606 -41.8416
LeftArm  -18.7563 33.7919 -30.5006
LeftForeArm  18.3126 -16.1513 -2.94414
LeftHand  -0.25398 0.0180481 5.50724
RightShoulder  4.6686 8.34086 33.4713
RightArm  -9.3646 -4.34491 35.1002
RightForeArm  11.9595 66.0802 25.4708
RightHand  -0.489193 -2.43131 -18.7232
LeftUpLeg  -16.5776 7.11583 -1.85714
LeftLeg  5.43697 22.5378 -5.48563
LeftFoot  7.91023 -0.403502 2.09454
LeftToes  1.06243e-005 4.65856e-005 -8.18503e-006
